<?xml version="1.0" encoding="utf-8" ?><svg width="3840" height="2400" viewBox="0 0 3840 2400" style="font-family: sans-serif;" xmlns="http://www.w3.org/2000/svg"><rect width="2796" height="1290" x="0" y="0" fill="#853C9B" stroke="none" opacity=".6"></rect><text width="200" height="30" x="2796" y="1290" fill="#fff" stroke="none" font-size="20" text-anchor="end" transform="translate(-4,-4)">iPhone 15 Pro Max 9:19.5 2796x1290</text><rect width="2796" height="1290" x="0" y="0" fill="#A249BC" stroke="none" opacity=".6"></rect><text width="200" height="30" x="2796" y="1290" fill="#fff" stroke="none" font-size="20" text-anchor="end" transform="translate(-4,-4)">iPhone 15+ 9:19.5 2796x1290</text><rect width="2796" height="1290" x="0" y="0" fill="#BE56DD" stroke="none" opacity=".6"></rect><text width="200" height="30" x="2796" y="1290" fill="#fff" stroke="none" font-size="20" text-anchor="end" transform="translate(-4,-4)">iPhone 14 Pro Max 9:19.5 2796x1290</text><rect width="2556" height="1179" x="0" y="0" fill="#C86FE2" stroke="none" opacity=".6"></rect><text width="200" height="30" x="2556" y="1179" fill="#fff" stroke="none" font-size="20" text-anchor="end" transform="translate(-4,-4)">iPhone 15 Pro  9:19.5 2556x1179</text><rect width="2556" height="1179" x="0" y="0" fill="#CE8CE2" stroke="none" opacity=".6"></rect><text width="200" height="30" x="2556" y="1179" fill="#fff" stroke="none" font-size="20" text-anchor="end" transform="translate(-4,-4)">iPhone 15  9:19.5 2556x1179</text><rect width="2556" height="1179" x="0" y="0" fill="#238ADF" stroke="none" opacity=".6"></rect><text width="200" height="30" x="2556" y="1179" fill="#fff" stroke="none" font-size="20" text-anchor="end" transform="translate(-4,-4)">iPhone 14 Pro  9:19.5 2556x1179</text><rect width="2778" height="1284" x="0" y="0" fill="#3E9FEF" stroke="none" opacity=".6"></rect><text width="200" height="30" x="2778" y="1284" fill="#fff" stroke="none" font-size="20" text-anchor="end" transform="translate(-4,-4)">iPhone 14+ 9:19.5 2778x1284</text><rect width="2778" height="1284" x="0" y="0" fill="#5BADF1" stroke="none" opacity=".6"></rect><text width="200" height="30" x="2778" y="1284" fill="#fff" stroke="none" font-size="20" text-anchor="end" transform="translate(-4,-4)">iPhone 13 Pro Max  9:19.5 2778x1284</text><rect width="2778" height="1284" x="0" y="0" fill="#00A2B8" stroke="none" opacity=".6"></rect><text width="200" height="30" x="2778" y="1284" fill="#fff" stroke="none" font-size="20" text-anchor="end" transform="translate(-4,-4)">iPhone 12 Pro Max  9:19.5 2778x1284</text><rect width="2532" height="1170" x="0" y="0" fill="#38B3C2" stroke="none" opacity=".6"></rect><text width="200" height="30" x="2532" y="1170" fill="#fff" stroke="none" font-size="20" text-anchor="end" transform="translate(-4,-4)">iPhone 14  9:19.5 2532x1170</text><rect width="2532" height="1170" x="0" y="0" fill="#56BECB" stroke="none" opacity=".6"></rect><text width="200" height="30" x="2532" y="1170" fill="#fff" stroke="none" font-size="20" text-anchor="end" transform="translate(-4,-4)">iPhone 13 Pro  9:19.5 2532x1170</text><rect width="2532" height="1170" x="0" y="0" fill="#4FA711" stroke="none" opacity=".6"></rect><text width="200" height="30" x="2532" y="1170" fill="#fff" stroke="none" font-size="20" text-anchor="end" transform="translate(-4,-4)">iPhone 13  9:19.5 2532x1170</text><rect width="2532" height="1170" x="0" y="0" fill="#87C35C" stroke="none" opacity=".6"></rect><text width="200" height="30" x="2532" y="1170" fill="#fff" stroke="none" font-size="20" text-anchor="end" transform="translate(-4,-4)">iPhone 12 Pro  9:19.5 2532x1170</text><rect width="2532" height="1170" x="0" y="0" fill="#99CC74" stroke="none" opacity=".6"></rect><text width="200" height="30" x="2532" y="1170" fill="#fff" stroke="none" font-size="20" text-anchor="end" transform="translate(-4,-4)">iPhone 13  9:19.5 2532x1170</text><rect width="2340" height="1080" x="0" y="0" fill="#CA870C" stroke="none" opacity=".6"></rect><text width="200" height="30" x="2340" y="1080" fill="#fff" stroke="none" font-size="20" text-anchor="end" transform="translate(-4,-4)">iPhone 13 mini  9:19.5 2340x1080</text><rect width="2340" height="1080" x="0" y="0" fill="#E5B459" stroke="none" opacity=".6"></rect><text width="200" height="30" x="2340" y="1080" fill="#fff" stroke="none" font-size="20" text-anchor="end" transform="translate(-4,-4)">iPhone 12 mini  9:19.5 2340x1080</text><rect width="2688" height="1242" x="0" y="0" fill="#E9BF72" stroke="none" opacity=".6"></rect><text width="200" height="30" x="2688" y="1242" fill="#fff" stroke="none" font-size="20" text-anchor="end" transform="translate(-4,-4)">iPhone 11 Pro Max  9:19.5 2688x1242</text><rect width="2688" height="1242" x="0" y="0" fill="#BF8043" stroke="none" opacity=".6"></rect><text width="200" height="30" x="2688" y="1242" fill="#fff" stroke="none" font-size="20" text-anchor="end" transform="translate(-4,-4)">iPhone XS Max  9:19.5 2688x1242</text><rect width="2436" height="1125" x="0" y="0" fill="#E1964F" stroke="none" opacity=".6"></rect><text width="200" height="30" x="2436" y="1125" fill="#fff" stroke="none" font-size="20" text-anchor="end" transform="translate(-4,-4)">iPhone 11 X  9:19.5 2436x1125</text><rect width="2436" height="1125" x="0" y="0" fill="#E6A669" stroke="none" opacity=".6"></rect><text width="200" height="30" x="2436" y="1125" fill="#fff" stroke="none" font-size="20" text-anchor="end" transform="translate(-4,-4)">iPhone 11 XS  9:19.5 2436x1125</text><rect width="2436" height="1125" x="0" y="0" fill="#BE3F49" stroke="none" opacity=".6"></rect><text width="200" height="30" x="2436" y="1125" fill="#fff" stroke="none" font-size="20" text-anchor="end" transform="translate(-4,-4)">iPhone 11 Pro  9:19.5 2436x1125</text><rect width="1792" height="828" x="0" y="0" fill="#ED5B66" stroke="none" opacity=".6"></rect><text width="200" height="30" x="1792" y="828" fill="#fff" stroke="none" font-size="20" text-anchor="end" transform="translate(-4,-4)">iPhone 11  9:19.5 1792x828</text><rect width="1792" height="828" x="0" y="0" fill="#E5656F" stroke="none" opacity=".6"></rect><text width="200" height="30" x="1792" y="828" fill="#fff" stroke="none" font-size="20" text-anchor="end" transform="translate(-4,-4)">iPhone XR 9:19.5 1792x828</text><rect width="2208" height="1242" x="0" y="0" fill="#AA2D21" stroke="none" opacity=".6"></rect><text width="200" height="30" x="2208" y="1242" fill="#fff" stroke="none" font-size="20" text-anchor="end" transform="translate(-4,-4)">iPhone 8+  9:16 2208x1242</text><rect width="2208" height="1242" x="0" y="0" fill="#CE3F32" stroke="none" opacity=".6"></rect><text width="200" height="30" x="2208" y="1242" fill="#fff" stroke="none" font-size="20" text-anchor="end" transform="translate(-4,-4)">iPhone 7+  9:16 2208x1242</text><rect width="2208" height="1242" x="0" y="0" fill="#D05347" stroke="none" opacity=".6"></rect><text width="200" height="30" x="2208" y="1242" fill="#fff" stroke="none" font-size="20" text-anchor="end" transform="translate(-4,-4)">iPhone 6s+  9:16 2208x1242</text><rect width="2208" height="1242" x="0" y="0" fill="#386DD6" stroke="none" opacity=".6"></rect><text width="200" height="30" x="2208" y="1242" fill="#fff" stroke="none" font-size="20" text-anchor="end" transform="translate(-4,-4)">iPhone 6+  9:16 2208x1242</text><rect width="1334" height="750" x="0" y="0" fill="#528BFF" stroke="none" opacity=".6"></rect><text width="200" height="30" x="1334" y="750" fill="#fff" stroke="none" font-size="20" text-anchor="end" transform="translate(-4,-4)">iPhone 8 9:16 1334x750</text><rect width="1334" height="750" x="0" y="0" fill="#6C9CFF" stroke="none" opacity=".6"></rect><text width="200" height="30" x="1334" y="750" fill="#fff" stroke="none" font-size="20" text-anchor="end" transform="translate(-4,-4)">iPhone 7 9:16 1334x750</text><rect width="1334" height="750" x="0" y="0" fill="#853C9B" stroke="none" opacity=".6"></rect><text width="200" height="30" x="1334" y="750" fill="#fff" stroke="none" font-size="20" text-anchor="end" transform="translate(-4,-4)">iPhone 6s 9:16 1334x750</text><rect width="1334" height="750" x="0" y="0" fill="#A249BC" stroke="none" opacity=".6"></rect><text width="200" height="30" x="1334" y="750" fill="#fff" stroke="none" font-size="20" text-anchor="end" transform="translate(-4,-4)">iPhone 6 9:16 1334x750</text><rect width="1334" height="750" x="0" y="0" fill="#BE56DD" stroke="none" opacity=".6"></rect><text width="200" height="30" x="1334" y="750" fill="#fff" stroke="none" font-size="20" text-anchor="end" transform="translate(-4,-4)">iPhone SE (gen 3) 9:16 1334x750</text><rect width="1334" height="750" x="0" y="0" fill="#C86FE2" stroke="none" opacity=".6"></rect><text width="200" height="30" x="1334" y="750" fill="#fff" stroke="none" font-size="20" text-anchor="end" transform="translate(-4,-4)">iPhone SE (gen 2) 9:16 1334x750</text></svg>