<?xml version="1.0" encoding="utf-8" ?><svg width="3840" height="2400" viewBox="0 0 3840 2400" style="font-family: sans-serif;" xmlns="http://www.w3.org/2000/svg"><rect width="3840" height="2400" x="0" y="0" fill="#853C9B" stroke="none" opacity=".6"></rect><text width="200" height="30" x="3840" y="2400" fill="#fff" stroke="none" font-size="20" text-anchor="end" transform="translate(-4,-4)">QUXGA 8:5 3840x2400</text><rect width="2560" height="2048" x="0" y="0" fill="#A249BC" stroke="none" opacity=".6"></rect><text width="200" height="30" x="2560" y="2048" fill="#fff" stroke="none" font-size="20" text-anchor="end" transform="translate(-4,-4)"> 5:4 2560x2048</text><rect width="2560" height="1600" x="0" y="0" fill="#BE56DD" stroke="none" opacity=".6"></rect><text width="200" height="30" x="2560" y="1600" fill="#fff" stroke="none" font-size="20" text-anchor="end" transform="translate(-4,-4)">WQXGA 8:5 2560x1600</text><rect width="2048" height="1536" x="0" y="0" fill="#C86FE2" stroke="none" opacity=".6"></rect><text width="200" height="30" x="2048" y="1536" fill="#fff" stroke="none" font-size="20" text-anchor="end" transform="translate(-4,-4)">QXGA 4:3 2048x1536</text><rect width="2048" height="1280" x="0" y="0" fill="#CE8CE2" stroke="none" opacity=".6"></rect><text width="200" height="30" x="2048" y="1280" fill="#fff" stroke="none" font-size="20" text-anchor="end" transform="translate(-4,-4)"> 8:5 2048x1280</text><rect width="1920" height="2400" x="0" y="0" fill="#238ADF" stroke="none" opacity=".6"></rect><text width="200" height="30" x="1920" y="2400" fill="#fff" stroke="none" font-size="20" text-anchor="end" transform="translate(-4,-4)"> 4:5 1920x2400</text><rect width="1920" height="1440" x="0" y="0" fill="#3E9FEF" stroke="none" opacity=".6"></rect><text width="200" height="30" x="1920" y="1440" fill="#fff" stroke="none" font-size="20" text-anchor="end" transform="translate(-4,-4)"> 4:3 1920x1440</text><rect width="1920" height="1200" x="0" y="0" fill="#5BADF1" stroke="none" opacity=".6"></rect><text width="200" height="30" x="1920" y="1200" fill="#fff" stroke="none" font-size="20" text-anchor="end" transform="translate(-4,-4)">WUXGA 8:5 1920x1200</text><rect width="1920" height="1080" x="0" y="0" fill="#00A2B8" stroke="none" opacity=".6"></rect><text width="200" height="30" x="1920" y="1080" fill="#fff" stroke="none" font-size="20" text-anchor="end" transform="translate(-4,-4)"> 16:9 1920x1080</text><rect width="1856" height="1392" x="0" y="0" fill="#38B3C2" stroke="none" opacity=".6"></rect><text width="200" height="30" x="1856" y="1392" fill="#fff" stroke="none" font-size="20" text-anchor="end" transform="translate(-4,-4)"> 4:3 1856x1392</text><rect width="1792" height="1344" x="0" y="0" fill="#56BECB" stroke="none" opacity=".6"></rect><text width="200" height="30" x="1792" y="1344" fill="#fff" stroke="none" font-size="20" text-anchor="end" transform="translate(-4,-4)"> 4:3 1792x1344</text><rect width="1680" height="1050" x="0" y="0" fill="#4FA711" stroke="none" opacity=".6"></rect><text width="200" height="30" x="1680" y="1050" fill="#fff" stroke="none" font-size="20" text-anchor="end" transform="translate(-4,-4)">WSXGA, WSXGA+ 8:5 1680x1050</text><rect width="1600" height="1280" x="0" y="0" fill="#87C35C" stroke="none" opacity=".6"></rect><text width="200" height="30" x="1600" y="1280" fill="#fff" stroke="none" font-size="20" text-anchor="end" transform="translate(-4,-4)">1-1/4:1 1.25 1600x1280</text><rect width="1600" height="1200" x="0" y="0" fill="#99CC74" stroke="none" opacity=".6"></rect><text width="200" height="30" x="1600" y="1200" fill="#fff" stroke="none" font-size="20" text-anchor="end" transform="translate(-4,-4)">UXGA 4:3 1600x1200</text><rect width="1600" height="1024" x="0" y="0" fill="#CA870C" stroke="none" opacity=".6"></rect><text width="200" height="30" x="1600" y="1024" fill="#fff" stroke="none" font-size="20" text-anchor="end" transform="translate(-4,-4)"> 25:16 1600x1024</text><rect width="1600" height="1000" x="0" y="0" fill="#E5B459" stroke="none" opacity=".6"></rect><text width="200" height="30" x="1600" y="1000" fill="#fff" stroke="none" font-size="20" text-anchor="end" transform="translate(-4,-4)"> 8:5 1600x1000</text><rect width="1600" height="900" x="0" y="0" fill="#E9BF72" stroke="none" opacity=".6"></rect><text width="200" height="30" x="1600" y="900" fill="#fff" stroke="none" font-size="20" text-anchor="end" transform="translate(-4,-4)"> 16:9 1600x900</text><rect width="1440" height="900" x="0" y="0" fill="#BF8043" stroke="none" opacity=".6"></rect><text width="200" height="30" x="1440" y="900" fill="#fff" stroke="none" font-size="20" text-anchor="end" transform="translate(-4,-4)">SXGA, WXGA, WXGA+ 8:5 1440x900</text><rect width="1400" height="1050" x="0" y="0" fill="#E1964F" stroke="none" opacity=".6"></rect><text width="200" height="30" x="1400" y="1050" fill="#fff" stroke="none" font-size="20" text-anchor="end" transform="translate(-4,-4)">SXGA+ 4:3 1400x1050</text><rect width="1366" height="768" x="0" y="0" fill="#E6A669" stroke="none" opacity=".6"></rect><text width="200" height="30" x="1366" y="768" fill="#fff" stroke="none" font-size="20" text-anchor="end" transform="translate(-4,-4)">WXGA 683:384 1366x768</text><rect width="1360" height="768" x="0" y="0" fill="#BE3F49" stroke="none" opacity=".6"></rect><text width="200" height="30" x="1360" y="768" fill="#fff" stroke="none" font-size="20" text-anchor="end" transform="translate(-4,-4)">WXGA 85:48 1360x768</text><rect width="1280" height="1024" x="0" y="0" fill="#ED5B66" stroke="none" opacity=".6"></rect><text width="200" height="30" x="1280" y="1024" fill="#fff" stroke="none" font-size="20" text-anchor="end" transform="translate(-4,-4)">SXGA 5:4 1280x1024</text><rect width="1280" height="960" x="0" y="0" fill="#E5656F" stroke="none" opacity=".6"></rect><text width="200" height="30" x="1280" y="960" fill="#fff" stroke="none" font-size="20" text-anchor="end" transform="translate(-4,-4)"> 4:3 1280x960</text><rect width="1280" height="800" x="0" y="0" fill="#AA2D21" stroke="none" opacity=".6"></rect><text width="200" height="30" x="1280" y="800" fill="#fff" stroke="none" font-size="20" text-anchor="end" transform="translate(-4,-4)">WXGA 8:5 1280x800</text><rect width="1280" height="768" x="0" y="0" fill="#CE3F32" stroke="none" opacity=".6"></rect><text width="200" height="30" x="1280" y="768" fill="#fff" stroke="none" font-size="20" text-anchor="end" transform="translate(-4,-4)">WXGA 5:3 1280x768</text><rect width="1280" height="720" x="0" y="0" fill="#D05347" stroke="none" opacity=".6"></rect><text width="200" height="30" x="1280" y="720" fill="#fff" stroke="none" font-size="20" text-anchor="end" transform="translate(-4,-4)"> 16:9 1280x720</text><rect width="1152" height="864" x="0" y="0" fill="#386DD6" stroke="none" opacity=".6"></rect><text width="200" height="30" x="1152" y="864" fill="#fff" stroke="none" font-size="20" text-anchor="end" transform="translate(-4,-4)"> 4:3 1152x864</text><rect width="1024" height="768" x="0" y="0" fill="#528BFF" stroke="none" opacity=".6"></rect><text width="200" height="30" x="1024" y="768" fill="#fff" stroke="none" font-size="20" text-anchor="end" transform="translate(-4,-4)">XGA 4:3 1024x768</text><rect width="1024" height="640" x="0" y="0" fill="#6C9CFF" stroke="none" opacity=".6"></rect><text width="200" height="30" x="1024" y="640" fill="#fff" stroke="none" font-size="20" text-anchor="end" transform="translate(-4,-4)"> 8:5 1024x640</text><rect width="960" height="1200" x="0" y="0" fill="#853C9B" stroke="none" opacity=".6"></rect><text width="200" height="30" x="960" y="1200" fill="#fff" stroke="none" font-size="20" text-anchor="end" transform="translate(-4,-4)"> 4:5 960x1200</text><rect width="960" height="600" x="0" y="0" fill="#A249BC" stroke="none" opacity=".6"></rect><text width="200" height="30" x="960" y="600" fill="#fff" stroke="none" font-size="20" text-anchor="end" transform="translate(-4,-4)"> 8:5 960x600</text><rect width="854" height="480" x="0" y="0" fill="#BE56DD" stroke="none" opacity=".6"></rect><text width="200" height="30" x="854" y="480" fill="#fff" stroke="none" font-size="20" text-anchor="end" transform="translate(-4,-4)"> 427:240 854x480</text><rect width="800" height="600" x="0" y="0" fill="#C86FE2" stroke="none" opacity=".6"></rect><text width="200" height="30" x="800" y="600" fill="#fff" stroke="none" font-size="20" text-anchor="end" transform="translate(-4,-4)">SVGA 4:3 800x600</text></svg>