<?xml version="1.0" encoding="utf-8" ?><svg width="3840" height="2400" viewBox="0 0 3840 2400" style="font-family: sans-serif;" xmlns="http://www.w3.org/2000/svg"><rect width="2400" height="3840" x="0" y="0" fill="#853C9B" stroke="none" opacity=".6"></rect><text width="200" height="30" x="2400" y="3840" fill="#fff" stroke="none" font-size="20" text-anchor="end" transform="translate(-4,-4)">QUXGA 8:5 2400x3840</text><rect width="2048" height="2560" x="0" y="0" fill="#A249BC" stroke="none" opacity=".6"></rect><text width="200" height="30" x="2048" y="2560" fill="#fff" stroke="none" font-size="20" text-anchor="end" transform="translate(-4,-4)"> 5:4 2048x2560</text><rect width="1600" height="2560" x="0" y="0" fill="#BE56DD" stroke="none" opacity=".6"></rect><text width="200" height="30" x="1600" y="2560" fill="#fff" stroke="none" font-size="20" text-anchor="end" transform="translate(-4,-4)">WQXGA 8:5 1600x2560</text><rect width="1536" height="2048" x="0" y="0" fill="#C86FE2" stroke="none" opacity=".6"></rect><text width="200" height="30" x="1536" y="2048" fill="#fff" stroke="none" font-size="20" text-anchor="end" transform="translate(-4,-4)">QXGA 4:3 1536x2048</text><rect width="1280" height="2048" x="0" y="0" fill="#CE8CE2" stroke="none" opacity=".6"></rect><text width="200" height="30" x="1280" y="2048" fill="#fff" stroke="none" font-size="20" text-anchor="end" transform="translate(-4,-4)"> 8:5 1280x2048</text><rect width="2400" height="1920" x="0" y="0" fill="#238ADF" stroke="none" opacity=".6"></rect><text width="200" height="30" x="2400" y="1920" fill="#fff" stroke="none" font-size="20" text-anchor="end" transform="translate(-4,-4)"> 4:5 2400x1920</text><rect width="1440" height="1920" x="0" y="0" fill="#3E9FEF" stroke="none" opacity=".6"></rect><text width="200" height="30" x="1440" y="1920" fill="#fff" stroke="none" font-size="20" text-anchor="end" transform="translate(-4,-4)"> 4:3 1440x1920</text><rect width="1200" height="1920" x="0" y="0" fill="#5BADF1" stroke="none" opacity=".6"></rect><text width="200" height="30" x="1200" y="1920" fill="#fff" stroke="none" font-size="20" text-anchor="end" transform="translate(-4,-4)">WUXGA 8:5 1200x1920</text><rect width="1080" height="1920" x="0" y="0" fill="#00A2B8" stroke="none" opacity=".6"></rect><text width="200" height="30" x="1080" y="1920" fill="#fff" stroke="none" font-size="20" text-anchor="end" transform="translate(-4,-4)"> 16:9 1080x1920</text><rect width="1392" height="1856" x="0" y="0" fill="#38B3C2" stroke="none" opacity=".6"></rect><text width="200" height="30" x="1392" y="1856" fill="#fff" stroke="none" font-size="20" text-anchor="end" transform="translate(-4,-4)"> 4:3 1392x1856</text><rect width="1344" height="1792" x="0" y="0" fill="#56BECB" stroke="none" opacity=".6"></rect><text width="200" height="30" x="1344" y="1792" fill="#fff" stroke="none" font-size="20" text-anchor="end" transform="translate(-4,-4)"> 4:3 1344x1792</text><rect width="1050" height="1680" x="0" y="0" fill="#4FA711" stroke="none" opacity=".6"></rect><text width="200" height="30" x="1050" y="1680" fill="#fff" stroke="none" font-size="20" text-anchor="end" transform="translate(-4,-4)">WSXGA, WSXGA+ 8:5 1050x1680</text><rect width="1280" height="1600" x="0" y="0" fill="#87C35C" stroke="none" opacity=".6"></rect><text width="200" height="30" x="1280" y="1600" fill="#fff" stroke="none" font-size="20" text-anchor="end" transform="translate(-4,-4)">1-1/4:1 1.25 1280x1600</text><rect width="1200" height="1600" x="0" y="0" fill="#99CC74" stroke="none" opacity=".6"></rect><text width="200" height="30" x="1200" y="1600" fill="#fff" stroke="none" font-size="20" text-anchor="end" transform="translate(-4,-4)">UXGA 4:3 1200x1600</text><rect width="1024" height="1600" x="0" y="0" fill="#CA870C" stroke="none" opacity=".6"></rect><text width="200" height="30" x="1024" y="1600" fill="#fff" stroke="none" font-size="20" text-anchor="end" transform="translate(-4,-4)"> 25:16 1024x1600</text><rect width="1000" height="1600" x="0" y="0" fill="#E5B459" stroke="none" opacity=".6"></rect><text width="200" height="30" x="1000" y="1600" fill="#fff" stroke="none" font-size="20" text-anchor="end" transform="translate(-4,-4)"> 8:5 1000x1600</text><rect width="900" height="1600" x="0" y="0" fill="#E9BF72" stroke="none" opacity=".6"></rect><text width="200" height="30" x="900" y="1600" fill="#fff" stroke="none" font-size="20" text-anchor="end" transform="translate(-4,-4)"> 16:9 900x1600</text><rect width="900" height="1440" x="0" y="0" fill="#BF8043" stroke="none" opacity=".6"></rect><text width="200" height="30" x="900" y="1440" fill="#fff" stroke="none" font-size="20" text-anchor="end" transform="translate(-4,-4)">SXGA, WXGA, WXGA+ 8:5 900x1440</text><rect width="1050" height="1400" x="0" y="0" fill="#E1964F" stroke="none" opacity=".6"></rect><text width="200" height="30" x="1050" y="1400" fill="#fff" stroke="none" font-size="20" text-anchor="end" transform="translate(-4,-4)">SXGA+ 4:3 1050x1400</text><rect width="768" height="1366" x="0" y="0" fill="#E6A669" stroke="none" opacity=".6"></rect><text width="200" height="30" x="768" y="1366" fill="#fff" stroke="none" font-size="20" text-anchor="end" transform="translate(-4,-4)">WXGA 683:384 768x1366</text><rect width="768" height="1360" x="0" y="0" fill="#BE3F49" stroke="none" opacity=".6"></rect><text width="200" height="30" x="768" y="1360" fill="#fff" stroke="none" font-size="20" text-anchor="end" transform="translate(-4,-4)">WXGA 85:48 768x1360</text><rect width="1024" height="1280" x="0" y="0" fill="#ED5B66" stroke="none" opacity=".6"></rect><text width="200" height="30" x="1024" y="1280" fill="#fff" stroke="none" font-size="20" text-anchor="end" transform="translate(-4,-4)">SXGA 5:4 1024x1280</text><rect width="960" height="1280" x="0" y="0" fill="#E5656F" stroke="none" opacity=".6"></rect><text width="200" height="30" x="960" y="1280" fill="#fff" stroke="none" font-size="20" text-anchor="end" transform="translate(-4,-4)"> 4:3 960x1280</text><rect width="800" height="1280" x="0" y="0" fill="#AA2D21" stroke="none" opacity=".6"></rect><text width="200" height="30" x="800" y="1280" fill="#fff" stroke="none" font-size="20" text-anchor="end" transform="translate(-4,-4)">WXGA 8:5 800x1280</text><rect width="768" height="1280" x="0" y="0" fill="#CE3F32" stroke="none" opacity=".6"></rect><text width="200" height="30" x="768" y="1280" fill="#fff" stroke="none" font-size="20" text-anchor="end" transform="translate(-4,-4)">WXGA 5:3 768x1280</text><rect width="720" height="1280" x="0" y="0" fill="#D05347" stroke="none" opacity=".6"></rect><text width="200" height="30" x="720" y="1280" fill="#fff" stroke="none" font-size="20" text-anchor="end" transform="translate(-4,-4)"> 16:9 720x1280</text><rect width="864" height="1152" x="0" y="0" fill="#386DD6" stroke="none" opacity=".6"></rect><text width="200" height="30" x="864" y="1152" fill="#fff" stroke="none" font-size="20" text-anchor="end" transform="translate(-4,-4)"> 4:3 864x1152</text><rect width="768" height="1024" x="0" y="0" fill="#528BFF" stroke="none" opacity=".6"></rect><text width="200" height="30" x="768" y="1024" fill="#fff" stroke="none" font-size="20" text-anchor="end" transform="translate(-4,-4)">XGA 4:3 768x1024</text><rect width="640" height="1024" x="0" y="0" fill="#6C9CFF" stroke="none" opacity=".6"></rect><text width="200" height="30" x="640" y="1024" fill="#fff" stroke="none" font-size="20" text-anchor="end" transform="translate(-4,-4)"> 8:5 640x1024</text><rect width="1200" height="960" x="0" y="0" fill="#853C9B" stroke="none" opacity=".6"></rect><text width="200" height="30" x="1200" y="960" fill="#fff" stroke="none" font-size="20" text-anchor="end" transform="translate(-4,-4)"> 4:5 1200x960</text><rect width="600" height="960" x="0" y="0" fill="#A249BC" stroke="none" opacity=".6"></rect><text width="200" height="30" x="600" y="960" fill="#fff" stroke="none" font-size="20" text-anchor="end" transform="translate(-4,-4)"> 8:5 600x960</text><rect width="480" height="854" x="0" y="0" fill="#BE56DD" stroke="none" opacity=".6"></rect><text width="200" height="30" x="480" y="854" fill="#fff" stroke="none" font-size="20" text-anchor="end" transform="translate(-4,-4)"> 427:240 480x854</text><rect width="600" height="800" x="0" y="0" fill="#C86FE2" stroke="none" opacity=".6"></rect><text width="200" height="30" x="600" y="800" fill="#fff" stroke="none" font-size="20" text-anchor="end" transform="translate(-4,-4)">SVGA 4:3 600x800</text></svg>