<?xml version="1.0" encoding="utf-8" ?><svg width="3840" height="2400" viewBox="0 0 3840 2400" style="font-family: sans-serif;" xmlns="http://www.w3.org/2000/svg"><rect width="1290" height="2796" x="0" y="0" fill="#853C9B" stroke="none" opacity=".6"></rect><text width="200" height="30" x="1290" y="2796" fill="#fff" stroke="none" font-size="20" text-anchor="end" transform="translate(-4,-4)">iPhone 15 Pro Max 9:19.5 1290x2796</text><rect width="1290" height="2796" x="0" y="0" fill="#A249BC" stroke="none" opacity=".6"></rect><text width="200" height="30" x="1290" y="2796" fill="#fff" stroke="none" font-size="20" text-anchor="end" transform="translate(-4,-4)">iPhone 15+ 9:19.5 1290x2796</text><rect width="1290" height="2796" x="0" y="0" fill="#BE56DD" stroke="none" opacity=".6"></rect><text width="200" height="30" x="1290" y="2796" fill="#fff" stroke="none" font-size="20" text-anchor="end" transform="translate(-4,-4)">iPhone 14 Pro Max 9:19.5 1290x2796</text><rect width="1179" height="2556" x="0" y="0" fill="#C86FE2" stroke="none" opacity=".6"></rect><text width="200" height="30" x="1179" y="2556" fill="#fff" stroke="none" font-size="20" text-anchor="end" transform="translate(-4,-4)">iPhone 15 Pro  9:19.5 1179x2556</text><rect width="1179" height="2556" x="0" y="0" fill="#CE8CE2" stroke="none" opacity=".6"></rect><text width="200" height="30" x="1179" y="2556" fill="#fff" stroke="none" font-size="20" text-anchor="end" transform="translate(-4,-4)">iPhone 15  9:19.5 1179x2556</text><rect width="1179" height="2556" x="0" y="0" fill="#238ADF" stroke="none" opacity=".6"></rect><text width="200" height="30" x="1179" y="2556" fill="#fff" stroke="none" font-size="20" text-anchor="end" transform="translate(-4,-4)">iPhone 14 Pro  9:19.5 1179x2556</text><rect width="1284" height="2778" x="0" y="0" fill="#3E9FEF" stroke="none" opacity=".6"></rect><text width="200" height="30" x="1284" y="2778" fill="#fff" stroke="none" font-size="20" text-anchor="end" transform="translate(-4,-4)">iPhone 14+ 9:19.5 1284x2778</text><rect width="1284" height="2778" x="0" y="0" fill="#5BADF1" stroke="none" opacity=".6"></rect><text width="200" height="30" x="1284" y="2778" fill="#fff" stroke="none" font-size="20" text-anchor="end" transform="translate(-4,-4)">iPhone 13 Pro Max  9:19.5 1284x2778</text><rect width="1284" height="2778" x="0" y="0" fill="#00A2B8" stroke="none" opacity=".6"></rect><text width="200" height="30" x="1284" y="2778" fill="#fff" stroke="none" font-size="20" text-anchor="end" transform="translate(-4,-4)">iPhone 12 Pro Max  9:19.5 1284x2778</text><rect width="1170" height="2532" x="0" y="0" fill="#38B3C2" stroke="none" opacity=".6"></rect><text width="200" height="30" x="1170" y="2532" fill="#fff" stroke="none" font-size="20" text-anchor="end" transform="translate(-4,-4)">iPhone 14  9:19.5 1170x2532</text><rect width="1170" height="2532" x="0" y="0" fill="#56BECB" stroke="none" opacity=".6"></rect><text width="200" height="30" x="1170" y="2532" fill="#fff" stroke="none" font-size="20" text-anchor="end" transform="translate(-4,-4)">iPhone 13 Pro  9:19.5 1170x2532</text><rect width="1170" height="2532" x="0" y="0" fill="#4FA711" stroke="none" opacity=".6"></rect><text width="200" height="30" x="1170" y="2532" fill="#fff" stroke="none" font-size="20" text-anchor="end" transform="translate(-4,-4)">iPhone 13  9:19.5 1170x2532</text><rect width="1170" height="2532" x="0" y="0" fill="#87C35C" stroke="none" opacity=".6"></rect><text width="200" height="30" x="1170" y="2532" fill="#fff" stroke="none" font-size="20" text-anchor="end" transform="translate(-4,-4)">iPhone 12 Pro  9:19.5 1170x2532</text><rect width="1170" height="2532" x="0" y="0" fill="#99CC74" stroke="none" opacity=".6"></rect><text width="200" height="30" x="1170" y="2532" fill="#fff" stroke="none" font-size="20" text-anchor="end" transform="translate(-4,-4)">iPhone 13  9:19.5 1170x2532</text><rect width="1080" height="2340" x="0" y="0" fill="#CA870C" stroke="none" opacity=".6"></rect><text width="200" height="30" x="1080" y="2340" fill="#fff" stroke="none" font-size="20" text-anchor="end" transform="translate(-4,-4)">iPhone 13 mini  9:19.5 1080x2340</text><rect width="1080" height="2340" x="0" y="0" fill="#E5B459" stroke="none" opacity=".6"></rect><text width="200" height="30" x="1080" y="2340" fill="#fff" stroke="none" font-size="20" text-anchor="end" transform="translate(-4,-4)">iPhone 12 mini  9:19.5 1080x2340</text><rect width="1242" height="2688" x="0" y="0" fill="#E9BF72" stroke="none" opacity=".6"></rect><text width="200" height="30" x="1242" y="2688" fill="#fff" stroke="none" font-size="20" text-anchor="end" transform="translate(-4,-4)">iPhone 11 Pro Max  9:19.5 1242x2688</text><rect width="1242" height="2688" x="0" y="0" fill="#BF8043" stroke="none" opacity=".6"></rect><text width="200" height="30" x="1242" y="2688" fill="#fff" stroke="none" font-size="20" text-anchor="end" transform="translate(-4,-4)">iPhone XS Max  9:19.5 1242x2688</text><rect width="1125" height="2436" x="0" y="0" fill="#E1964F" stroke="none" opacity=".6"></rect><text width="200" height="30" x="1125" y="2436" fill="#fff" stroke="none" font-size="20" text-anchor="end" transform="translate(-4,-4)">iPhone 11 X  9:19.5 1125x2436</text><rect width="1125" height="2436" x="0" y="0" fill="#E6A669" stroke="none" opacity=".6"></rect><text width="200" height="30" x="1125" y="2436" fill="#fff" stroke="none" font-size="20" text-anchor="end" transform="translate(-4,-4)">iPhone 11 XS  9:19.5 1125x2436</text><rect width="1125" height="2436" x="0" y="0" fill="#BE3F49" stroke="none" opacity=".6"></rect><text width="200" height="30" x="1125" y="2436" fill="#fff" stroke="none" font-size="20" text-anchor="end" transform="translate(-4,-4)">iPhone 11 Pro  9:19.5 1125x2436</text><rect width="828" height="1792" x="0" y="0" fill="#ED5B66" stroke="none" opacity=".6"></rect><text width="200" height="30" x="828" y="1792" fill="#fff" stroke="none" font-size="20" text-anchor="end" transform="translate(-4,-4)">iPhone 11  9:19.5 828x1792</text><rect width="828" height="1792" x="0" y="0" fill="#E5656F" stroke="none" opacity=".6"></rect><text width="200" height="30" x="828" y="1792" fill="#fff" stroke="none" font-size="20" text-anchor="end" transform="translate(-4,-4)">iPhone XR 9:19.5 828x1792</text><rect width="1242" height="2208" x="0" y="0" fill="#AA2D21" stroke="none" opacity=".6"></rect><text width="200" height="30" x="1242" y="2208" fill="#fff" stroke="none" font-size="20" text-anchor="end" transform="translate(-4,-4)">iPhone 8+  9:16 1242x2208</text><rect width="1242" height="2208" x="0" y="0" fill="#CE3F32" stroke="none" opacity=".6"></rect><text width="200" height="30" x="1242" y="2208" fill="#fff" stroke="none" font-size="20" text-anchor="end" transform="translate(-4,-4)">iPhone 7+  9:16 1242x2208</text><rect width="1242" height="2208" x="0" y="0" fill="#D05347" stroke="none" opacity=".6"></rect><text width="200" height="30" x="1242" y="2208" fill="#fff" stroke="none" font-size="20" text-anchor="end" transform="translate(-4,-4)">iPhone 6s+  9:16 1242x2208</text><rect width="1242" height="2208" x="0" y="0" fill="#386DD6" stroke="none" opacity=".6"></rect><text width="200" height="30" x="1242" y="2208" fill="#fff" stroke="none" font-size="20" text-anchor="end" transform="translate(-4,-4)">iPhone 6+  9:16 1242x2208</text><rect width="750" height="1334" x="0" y="0" fill="#528BFF" stroke="none" opacity=".6"></rect><text width="200" height="30" x="750" y="1334" fill="#fff" stroke="none" font-size="20" text-anchor="end" transform="translate(-4,-4)">iPhone 8 9:16 750x1334</text><rect width="750" height="1334" x="0" y="0" fill="#6C9CFF" stroke="none" opacity=".6"></rect><text width="200" height="30" x="750" y="1334" fill="#fff" stroke="none" font-size="20" text-anchor="end" transform="translate(-4,-4)">iPhone 7 9:16 750x1334</text><rect width="750" height="1334" x="0" y="0" fill="#853C9B" stroke="none" opacity=".6"></rect><text width="200" height="30" x="750" y="1334" fill="#fff" stroke="none" font-size="20" text-anchor="end" transform="translate(-4,-4)">iPhone 6s 9:16 750x1334</text><rect width="750" height="1334" x="0" y="0" fill="#A249BC" stroke="none" opacity=".6"></rect><text width="200" height="30" x="750" y="1334" fill="#fff" stroke="none" font-size="20" text-anchor="end" transform="translate(-4,-4)">iPhone 6 9:16 750x1334</text><rect width="750" height="1334" x="0" y="0" fill="#BE56DD" stroke="none" opacity=".6"></rect><text width="200" height="30" x="750" y="1334" fill="#fff" stroke="none" font-size="20" text-anchor="end" transform="translate(-4,-4)">iPhone SE (gen 3) 9:16 750x1334</text><rect width="750" height="1334" x="0" y="0" fill="#C86FE2" stroke="none" opacity=".6"></rect><text width="200" height="30" x="750" y="1334" fill="#fff" stroke="none" font-size="20" text-anchor="end" transform="translate(-4,-4)">iPhone SE (gen 2) 9:16 750x1334</text></svg>